<?xml version="1.0" standalone="no"?>
<!DOCTYPE svg PUBLIC "-//W3C//DTD SVG 20010904//EN"
 "http://www.w3.org/TR/2001/REC-SVG-20010904/DTD/svg10.dtd">
<svg version="1.0" xmlns="http://www.w3.org/2000/svg"
 width="512.000000pt" height="512.000000pt" viewBox="0 0 512.000000 512.000000"
 preserveAspectRatio="xMidYMid meet">

<g transform="translate(0.000000,512.000000) scale(0.100000,-0.100000)"
fill="#000000" stroke="none">
<path d="M2384 5110 c-1035 -74 -1922 -762 -2248 -1743 -146 -437 -170 -915
-70 -1367 223 -1003 1048 -1787 2064 -1959 819 -139 1647 125 2236 713 447
447 701 1011 743 1648 77 1150 -643 2217 -1742 2582 -310 103 -666 149 -983
126z m1234 -1766 c578 -427 1052 -779 1052 -784 0 -11 -2095 -1555 -2110
-1555 -17 0 -2111 1547 -2108 1557 4 10 2098 1557 2108 1558 3 0 479 -349
1058 -776z"/>
<path d="M2397 3434 c-96 -17 -205 -59 -300 -115 -98 -57 -240 -201 -301 -304
-50 -86 -56 -110 -28 -101 42 13 157 26 272 32 461 23 936 -148 1298 -466 51
-45 95 -80 98 -77 3 2 8 51 11 108 13 249 -69 474 -241 656 -211 224 -507 322
-809 267z"/>
<path d="M1972 2609 c-92 -9 -170 -23 -249 -45 -62 -17 -62 -18 -38 -159 30
-173 109 -327 233 -457 291 -305 736 -364 1105 -147 45 26 108 78 170 140 85
86 97 101 87 118 -19 37 -198 206 -279 264 -244 176 -492 266 -796 287 -77 5
-142 9 -145 8 -3 0 -42 -4 -88 -9z"/>
</g>
</svg>
