<?xml version="1.0" standalone="no"?>
<!DOCTYPE svg PUBLIC "-//W3C//DTD SVG 20010904//EN"
 "http://www.w3.org/TR/2001/REC-SVG-20010904/DTD/svg10.dtd">
<svg version="1.0" xmlns="http://www.w3.org/2000/svg"
 width="512.000000pt" height="512.000000pt" viewBox="0 0 512.000000 512.000000"
 preserveAspectRatio="xMidYMid meet">

<g transform="translate(0.000000,512.000000) scale(0.100000,-0.100000)"
fill="#000000" stroke="none">
<path d="M2370 4630 c-471 -45 -903 -243 -1242 -569 -222 -213 -371 -427 -482
-694 l-45 -107 1955 0 1955 0 -6 23 c-16 49 -69 167 -116 255 -309 580 -876
979 -1527 1077 -130 19 -368 26 -492 15z"/>
<path d="M1530 3165 c0 -3 21 -76 47 -161 l46 -154 272 0 272 0 40 158 c23 86
40 158 38 160 -1 1 -39 -27 -85 -63 -46 -36 -85 -65 -87 -65 -2 0 -39 26 -81
58 -42 32 -83 62 -90 66 -8 5 -46 -17 -102 -59 l-90 -67 -58 43 c-31 23 -72
54 -89 67 -18 13 -33 21 -33 17z"/>
<path d="M1219 2881 c-19 -20 -29 -40 -29 -60 l0 -31 85 0 c85 0 85 0 85 26 0
84 -83 123 -141 65z"/>
<path d="M2463 2900 c-27 -11 -43 -40 -43 -79 l0 -31 80 0 80 0 0 35 c0 64
-56 99 -117 75z"/>
<path d="M1550 2615 c0 -168 1 -175 20 -175 19 0 20 -7 20 -164 0 -161 1 -166
25 -193 l24 -28 1 193 0 192 25 0 25 0 0 -213 c0 -214 4 -242 36 -230 11 4 14
47 14 224 l0 219 25 0 25 0 0 -197 1 -198 24 30 c22 26 25 40 25 108 0 55 4
77 13 77 22 0 34 -15 42 -50 13 -59 51 -124 99 -168 25 -23 50 -42 55 -42 27
0 110 82 141 141 33 61 35 70 38 182 l4 117 -126 0 -126 0 0 25 c0 23 -3 25
-50 25 l-50 0 0 150 0 150 -165 0 -165 0 0 -175z m298 15 c4 -106 -1 -120 -43
-120 l-35 0 0 49 c0 54 -17 81 -52 81 -38 0 -58 -29 -58 -82 0 -47 -1 -48 -30
-48 -38 0 -50 23 -50 97 0 109 -6 104 139 101 l126 -3 3 -75z m322 -320 c0
-71 -5 -110 -15 -130 -17 -33 -61 -60 -98 -60 -57 0 -105 76 -93 148 4 20 9
55 12 77 9 67 6 65 104 65 l90 0 0 -100z"/>
<path d="M1997 2712 c-13 -14 -17 -39 -17 -105 0 -81 1 -88 25 -103 32 -21
103 -13 122 12 8 11 13 49 13 99 0 67 -3 85 -18 98 -26 24 -104 23 -125 -1z"/>
<path d="M1118 2029 c-5 -3 -8 -21 -6 -40 l3 -34 163 -3 162 -2 0 40 c0 22 -3
40 -7 41 -57 4 -307 2 -315 -2z"/>
<path d="M2344 2031 c-2 -2 -4 -22 -4 -43 l0 -38 161 0 160 0 -3 41 -3 41
-153 2 c-85 0 -156 -1 -158 -3z"/>
<path d="M624 1808 c31 -85 117 -254 176 -349 198 -319 494 -587 835 -754 307
-151 581 -215 925 -215 198 0 341 18 525 65 526 135 984 481 1262 952 57 98
146 285 158 336 l7 27 -1956 0 -1956 0 24 -62z"/>
</g>
</svg>
